<?xml version="1.0" encoding="UTF-8"?> <svg xmlns="http://www.w3.org/2000/svg" id="Layer_1" data-name="Layer 1" viewBox="0 0 229.5 64.2"><defs><style>.cls-1{fill:#96d3bb;}.cls-2{fill:#00ac6a;}.cls-3{fill:#006199;}.cls-4{fill:#5c2b85;}</style></defs><title>healthUs</title><polygon class="cls-1" points="173 19.3 173.2 31.2 173.7 31.2 186.3 36.1 186.6 35.4 173.9 30.5 173.9 30.5 173.8 19.3 173 19.3"></polygon><rect class="cls-1" x="155.81" y="24.2" width="0.7" height="8" transform="translate(-2.27 18.48) rotate(-6.98)"></rect><polygon class="cls-1" points="140.1 26.9 136.1 32.5 136.3 32.6 138.6 37.1 139.3 36.8 137 32.4 140.7 27.3 140.1 26.9"></polygon><rect class="cls-1" x="145.52" y="40.79" width="0.7" height="9.4" transform="translate(14.63 123.04) rotate(-48.13)"></rect><path class="cls-1" d="M141.5,19.2l-6.1.1v-.8l.2.2,5.6-7.7-.3-.2v-.1l.5-.2.1.1.1-.1,8.8-3.9-8.7,12.1.6.4,9-12.7,9.2.9.4.4-2.8,7.9-6.3-8.7-.6.4,6.6,9-2.1,7.4.7.2,1.9-6.8,3,10.9L160,38l-2.9-3.8-.6.4,3.2,4.2.2-.2v.1l.7.1,1.5-10.9h0L159,16.6h-.1l7.6-4.3h0l.1-.1.2-.1,7.9,1-.1.2.3.2-1.7,6.3.7.2,1.8-6.9,14-.3,1,1.6.6-.4-.7-1.2h.6v-.7h-1l-3.3-5.4-.2.1-7.1-.6-.1.7,7,.6,2.8,4.6-13.3.3L179.1,7h.2V6.3l-17.9.5v.4l-.3-.3V6.7l-9.8-1-.1-.4-.5.2h-.1v.1l-.2.1-6.3-1-.1.7,5.2.8-7.1,3.2,1.5-3.5-.7-.3-1.8,4L138.8,6l-.6.4,2.4,3.8-.1.1.1.2-5.1.2h-.6l-.1,8.8h.6v.6l6-.1-1.2,7.6.7.1,1.2-8.1-.6-.1Zm17.3-3.4,2.7-7.6,4.3,3.6Zm16.3-3.4-8-1-.1-.2-.3.2h-.1l-4.8-3.9V7.4L178.2,7Zm-39.6,5.4V11.3l4.8-.2Z" transform="translate(0 -0.7)"></path><polygon class="cls-1" points="166.8 49.8 166.9 49.6 158.9 49.3 159 49.2 150.1 48 150 48.8 158.7 49.9 158.7 50 166.6 50.3 166.8 55 167.5 55 167.3 49.7 166.8 49.8"></polygon><rect class="cls-1" x="215.18" y="58.6" width="0.7" height="2.8" transform="translate(-5.09 96.44) rotate(-25.11)"></rect><rect class="cls-1" x="203.67" y="37.5" width="10" height="0.7" transform="translate(64.72 192.89) rotate(-57.53)"></rect><path class="cls-1" d="M224.9,12.9l3.3-7.7-.2-.1-1.9-3.9-.4.2-.3-.2-3.2,4.7h0l-5.9,8.5-.4.1v.1l-5.5,1.6-9.3.5v.1l-.2-.1L198,11l-.4.2-.1-.5-5.9.7.1.7,5.7-.7,2.4,4.7-8.5-3.8-.3.7,9.3,4.2h0l3.3,5.4.6-.4-3-4.9,9.1-.4,3.2,7.9h-.1l-6.4-.1v.7l6.9.2h0l5.6,7.8-7.1-.6-.1.7,6.8.6L215,39.7l-2.9-6.5-.7.3,3.1,6.9.3-.1L211,47.6l-5.9-5-.2.3h-.7l.5,7.8-5.6-3.5.3-.1-.2-.5,3.3-12.5h-.1l9-1.2-.1-.5.2-.2L206.7,26l-.6.4,4.4,5.8-7.9,1.1,2-6.2-.7-.2-2,6.1-15.8-9.3-.4.6,16.2,9.6.1-.2h.1l.1.4-.6-.2-3.4,12.7-6,2.5h0l-7.5,5-6.8-2.9v-.3h-.1v-.1L170,45.9l3.1-13.5-.7-.2-3.1,13.5.3.1-.3.5,7.8,4.9-.2,7.7-9.3-8.5-.5.5,9.8,9,.1-.2,2,4.2.7-.3-2-4,7.1-4.7h0l7.8-5.2h0l5.4-2.2,6.6,4.1.2-.3,8.6,6.4.4-.6-8.7-6.5-.5-7.3,6.5,5.5.1-.1,3.5,4.4h0l-.7,3.2.7.2.7-3.2.3-.2-4.3-5.3-.1.1,4-7.7-.5-.2-.1-.2.5.4,4.4-6h.1V34l.3-.4-.2-.1.1-.1L214,25.1l5.1-4,.1.1,4.1-2.3-.1-.1,1.7-5.9ZM184.5,54.7l-6.4,4.2.2-6.9Zm-6.7,4.9Zm38.3-44.2L214,24.1l-3-7.2Zm-15,1.7Zm23-4.5-1,5.9-3.4,1.9-.1-.2-4.7,3.6L217,15l6.8-1.4-.1-.7-6.2,1.2,5.7-8.3h0L225.8,2l1.6,3.4-3.1,7.2h-.2Z" transform="translate(0 -0.7)"></path><circle class="cls-2" cx="135" cy="18.8" r="1.9"></circle><circle class="cls-2" cx="142.2" cy="18.9" r="2.8"></circle><circle class="cls-2" cx="140.3" cy="39.2" r="4.2"></circle><circle class="cls-2" cx="205.3" cy="24.1" r="4.2"></circle><circle class="cls-2" cx="190.9" cy="11.6" r="2.6"></circle><circle class="cls-2" cx="211.4" cy="32.2" r="3.5"></circle><circle class="cls-2" cx="151.2" cy="5.5" r="2.8"></circle><circle class="cls-2" cx="166.9" cy="10.8" r="2.8"></circle><circle class="cls-2" cx="178" cy="50.5" r="2.8"></circle><circle class="cls-2" cx="199.1" cy="46.5" r="2.8"></circle><circle class="cls-2" cx="204.9" cy="42.1" r="2.8"></circle><circle class="cls-2" cx="224.3" cy="12.5" r="2.8"></circle><circle class="cls-2" cx="143.4" cy="4.3" r="1.9"></circle><circle class="cls-2" cx="166.9" cy="50" r="1.9"></circle><circle class="cls-2" cx="177.5" cy="58.8" r="1.9"></circle><circle class="cls-2" cx="211.5" cy="47.7" r="1.9"></circle><circle class="cls-2" cx="214.2" cy="56.8" r="2.3"></circle><circle class="cls-2" cx="202.6" cy="33" r="1.5"></circle><circle class="cls-2" cx="222.7" cy="5.3" r="1.9"></circle><circle class="cls-2" cx="220" cy="33.1" r="1.9"></circle><circle class="cls-2" cx="158.3" cy="15.7" r="1.9"></circle><circle class="cls-2" cx="161.1" cy="6.6" r="1.9"></circle><circle class="cls-2" cx="175.5" cy="11.9" r="1.9"></circle><circle class="cls-2" cx="155.9" cy="23.9" r="1.9"></circle><circle class="cls-2" cx="200.8" cy="16.5" r="1.9"></circle><circle class="cls-2" cx="149.7" cy="48.1" r="2.3"></circle><circle class="cls-2" cx="170.1" cy="45.4" r="1.3"></circle><circle class="cls-2" cx="205.3" cy="50.5" r="1.3"></circle><circle class="cls-2" cx="219.5" cy="20.2" r="1.3"></circle><circle class="cls-2" cx="216.6" cy="14.1" r="1.3"></circle><circle class="cls-2" cx="197.8" cy="10.8" r="1.3"></circle><circle class="cls-2" cx="186.5" cy="6.3" r="1.3"></circle><circle class="cls-2" cx="210.8" cy="15.9" r="1.1"></circle><circle class="cls-2" cx="223.4" cy="18" r="0.9"></circle><circle class="cls-2" cx="225.6" cy="1.1" r="1.1"></circle><circle class="cls-2" cx="215.7" cy="52.7" r="1.1"></circle><circle class="cls-2" cx="216.1" cy="60.4" r="1.1"></circle><circle class="cls-2" cx="179.9" cy="63.1" r="1.1"></circle><circle class="cls-2" cx="135.1" cy="10.2" r="1.3"></circle><circle class="cls-2" cx="186.3" cy="23.2" r="1.3"></circle><circle class="cls-2" cx="141.1" cy="9.8" r="1.3"></circle><circle class="cls-2" cx="138.3" cy="5.3" r="1.6"></circle><circle class="cls-2" cx="179.1" cy="5.9" r="1.6"></circle><circle class="cls-2" cx="140.4" cy="27.1" r="1.6"></circle><circle class="cls-2" cx="187.1" cy="36.2" r="1.6"></circle><circle class="cls-2" cx="136.5" cy="32.7" r="1.6"></circle><circle class="cls-2" cx="158.5" cy="49.5" r="1.6"></circle><circle class="cls-2" cx="167.3" cy="54.8" r="1.6"></circle><circle class="cls-2" cx="192.6" cy="49" r="1.6"></circle><circle class="cls-2" cx="185.1" cy="54" r="1.6"></circle><circle class="cls-2" cx="173.5" cy="30.9" r="1.6"></circle><circle class="cls-2" cx="160" cy="38" r="1.6"></circle><circle class="cls-2" cx="214.2" cy="24.5" r="1.6"></circle><circle class="cls-2" cx="227.9" cy="5" r="1.6"></circle><circle class="cls-2" cx="215.2" cy="39.4" r="1.3"></circle><circle class="cls-2" cx="156.6" cy="32.2" r="2.8"></circle><circle class="cls-2" cx="161.8" cy="27.4" r="1.3"></circle><circle class="cls-2" cx="173.5" cy="19.3" r="1.3"></circle><path class="cls-3" d="M29.6,17.7V10.2H26.9V8.7H34v1.5H31.3v7.5Z" transform="translate(0 -0.7)"></path><path class="cls-3" d="M37,8.7V12a2.46,2.46,0,0,1,2-1,3.59,3.59,0,0,1,1.1.2,1.06,1.06,0,0,1,.7.6,1.14,1.14,0,0,1,.3.8,4.51,4.51,0,0,1,.1,1.3v3.8H39.5V14.3a3.81,3.81,0,0,0-.1-1.3,1.38,1.38,0,0,0-.3-.4,1.07,1.07,0,0,0-.6-.2,2.35,2.35,0,0,0-.8.2c-.3.1-.4.3-.5.6a3.73,3.73,0,0,0-.2,1.2v3.3H35.2v-9Z" transform="translate(0 -0.7)"></path><path class="cls-3" d="M46.7,15.6l1.7.3a3,3,0,0,1-1,1.4,3.45,3.45,0,0,1-1.8.5,3,3,0,0,1-2.5-1.1,3.8,3.8,0,0,1-.6-2.2,3.74,3.74,0,0,1,.8-2.5,2.72,2.72,0,0,1,2.1-.9,2.76,2.76,0,0,1,2.3,1,4,4,0,0,1,.8,2.9H44.2a2.14,2.14,0,0,0,.4,1.2,1.28,1.28,0,0,0,1,.4,1.45,1.45,0,0,0,.7-.2C46.5,16.3,46.6,15.9,46.7,15.6Zm.1-1.7a1.25,1.25,0,0,0-.4-1.1,1.49,1.49,0,0,0-.9-.4,1,1,0,0,0-.9.4,1.82,1.82,0,0,0-.4,1.1Z" transform="translate(0 -0.7)"></path><path class="cls-3" d="M33.9,56.9l1.9.6a4.52,4.52,0,0,1-1.5,2.4,4.6,4.6,0,0,1-5.8-.5,5.22,5.22,0,0,1-1.2-3.6A5.59,5.59,0,0,1,28.5,52a4.16,4.16,0,0,1,3.3-1.3,4.17,4.17,0,0,1,2.9,1.1,3.87,3.87,0,0,1,1,1.8l-1.9.5a2.4,2.4,0,0,0-.7-1.2,1.84,1.84,0,0,0-1.3-.4,2.14,2.14,0,0,0-1.7.8,4.14,4.14,0,0,0-.7,2.5,3.68,3.68,0,0,0,.7,2.6,2.14,2.14,0,0,0,1.7.8,1.9,1.9,0,0,0,1.3-.5A9.82,9.82,0,0,0,33.9,56.9Z" transform="translate(0 -0.7)"></path><path class="cls-3" d="M37,56.8a4.07,4.07,0,0,1,.5-1.8,2.74,2.74,0,0,1,1.3-1.3,4.14,4.14,0,0,1,1.9-.5,3.39,3.39,0,0,1,2.6,1,3.54,3.54,0,0,1,1,2.6,3.43,3.43,0,0,1-3.6,3.6,3.66,3.66,0,0,1-1.8-.4,2.74,2.74,0,0,1-1.3-1.3A2.31,2.31,0,0,1,37,56.8Zm1.9.1a2.54,2.54,0,0,0,.5,1.6,1.5,1.5,0,0,0,2.4,0,2.81,2.81,0,0,0,0-3.2,1.5,1.5,0,0,0-2.4,0A2.54,2.54,0,0,0,38.9,56.9Z" transform="translate(0 -0.7)"></path><path class="cls-3" d="M45.7,60.4V50.7h1.9v9.7Z" transform="translate(0 -0.7)"></path><path class="cls-3" d="M49.4,60.4V50.7h1.9v9.7Z" transform="translate(0 -0.7)"></path><path class="cls-3" d="M54.6,55.5l-1.7-.3a2.38,2.38,0,0,1,1-1.5,3.81,3.81,0,0,1,2.1-.5,5,5,0,0,1,1.9.3,2.18,2.18,0,0,1,.9.7,3.69,3.69,0,0,1,.2,1.7v2.2a5.31,5.31,0,0,0,.1,1.4l.3.9H57.6a1.69,1.69,0,0,0-.2-.5.35.35,0,0,0-.1-.2,6.07,6.07,0,0,1-1,.7,3,3,0,0,1-2.9-.4,2.17,2.17,0,0,1-.3-2.6,2.7,2.7,0,0,1,.8-.7,3.94,3.94,0,0,1,1.5-.4,6.89,6.89,0,0,0,1.8-.5v-.2a1,1,0,0,0-.3-.8c-.2-.2-.5-.2-1-.2a1.88,1.88,0,0,0-.8.2A1.79,1.79,0,0,0,54.6,55.5ZM57.1,57a5.31,5.31,0,0,1-1.1.3,3,3,0,0,0-1,.3,1,1,0,0,0-.4.7,1,1,0,0,0,1,1,1.93,1.93,0,0,0,1-.3c.2-.2.4-.4.4-.6s.1-.5.1-.9Z" transform="translate(0 -0.7)"></path><path class="cls-3" d="M60.7,60.4V50.7h1.9v3.5a2.69,2.69,0,0,1,4.1-.1,3.65,3.65,0,0,1,.8,2.7,4.1,4.1,0,0,1-.9,2.8,3,3,0,0,1-2.1,1,2.66,2.66,0,0,1-1.2-.3,2.84,2.84,0,0,1-1-.9v1Zm1.8-3.6a3.23,3.23,0,0,0,.3,1.6,1.36,1.36,0,0,0,1.3.7,1.23,1.23,0,0,0,1-.5,2.67,2.67,0,0,0,.4-1.7,2.5,2.5,0,0,0-.4-1.7,1.27,1.27,0,0,0-1.1-.5,1.61,1.61,0,0,0-1.1.5A2.36,2.36,0,0,0,62.5,56.8Z" transform="translate(0 -0.7)"></path><path class="cls-3" d="M68.6,56.8a4.07,4.07,0,0,1,.5-1.8,2.74,2.74,0,0,1,1.3-1.3,4.14,4.14,0,0,1,1.9-.5,3.39,3.39,0,0,1,2.6,1,3.54,3.54,0,0,1,1,2.6,3.43,3.43,0,0,1-3.6,3.6,3.66,3.66,0,0,1-1.8-.4,2.74,2.74,0,0,1-1.3-1.3A3.88,3.88,0,0,1,68.6,56.8Zm1.9.1a2.54,2.54,0,0,0,.5,1.6,1.5,1.5,0,0,0,2.4,0,2.81,2.81,0,0,0,0-3.2,1.5,1.5,0,0,0-2.4,0A2.54,2.54,0,0,0,70.5,56.9Z" transform="translate(0 -0.7)"></path><path class="cls-3" d="M79,60.4H77.2v-7h1.7v1a2.44,2.44,0,0,1,.8-.9,1.88,1.88,0,0,1,.8-.2,1.92,1.92,0,0,1,1.2.4l-.5,1.5a1.61,1.61,0,0,0-.9-.3,1.45,1.45,0,0,0-.7.2c-.2.1-.3.4-.4.8a11,11,0,0,0-.2,2.4Z" transform="translate(0 -0.7)"></path><path class="cls-3" d="M83.9,55.5l-1.7-.3a2.38,2.38,0,0,1,1-1.5,3.81,3.81,0,0,1,2.1-.5,5,5,0,0,1,1.9.3,2.18,2.18,0,0,1,.9.7,3.69,3.69,0,0,1,.2,1.7v2.2a5.31,5.31,0,0,0,.1,1.4l.3.9H86.9a1.69,1.69,0,0,0-.2-.5.35.35,0,0,0-.1-.2,6.07,6.07,0,0,1-1,.7,3,3,0,0,1-2.9-.4,2.17,2.17,0,0,1-.3-2.6,2.7,2.7,0,0,1,.8-.7,3.94,3.94,0,0,1,1.5-.4,6.89,6.89,0,0,0,1.8-.5v-.2a1,1,0,0,0-.3-.8c-.2-.2-.5-.2-1-.2a1.88,1.88,0,0,0-.8.2A1.28,1.28,0,0,0,83.9,55.5ZM86.4,57a5.31,5.31,0,0,1-1.1.3,3,3,0,0,0-1,.3,1,1,0,0,0-.4.7,1,1,0,0,0,1,1,1.93,1.93,0,0,0,1-.3c.2-.2.4-.4.4-.6s.1-.5.1-.9Z" transform="translate(0 -0.7)"></path><path class="cls-3" d="M93.3,53.4v1.5H92v3.8a.22.22,0,0,0,.2.2.37.37,0,0,0,.3.1,2.54,2.54,0,0,0,.7-.2l.2,1.4a3.34,3.34,0,0,1-1.5.3,2.92,2.92,0,0,1-.9-.2,1.54,1.54,0,0,1-.6-.4,4.88,4.88,0,0,1-.3-.7c0-.2-.1-.7-.1-1.3V54.8h-.9V53.3H90V52l1.9-1.1v2.5Z" transform="translate(0 -0.7)"></path><path class="cls-3" d="M94.6,52.4V50.7h1.9v1.7Zm0,8v-7h1.9v7Z" transform="translate(0 -0.7)"></path><path class="cls-3" d="M100.3,60.4l-2.8-7h1.9l1.3,3.6.4,1.2a3.93,3.93,0,0,0,.2-.6c.1-.2.1-.4.2-.6l1.3-3.6h1.9l-2.8,7Z" transform="translate(0 -0.7)"></path><path class="cls-3" d="M109.9,58.2l1.9.3a2.49,2.49,0,0,1-1.1,1.5,3,3,0,0,1-1.9.5,3.16,3.16,0,0,1-2.7-1.2,3.61,3.61,0,0,1-.7-2.4,3.67,3.67,0,0,1,.9-2.7,2.9,2.9,0,0,1,2.3-1,3.17,3.17,0,0,1,2.5,1,4.71,4.71,0,0,1,.9,3.2h-4.8a2.23,2.23,0,0,0,.4,1.3,1.41,1.41,0,0,0,1.8.3A1.58,1.58,0,0,0,109.9,58.2Zm.1-1.9a2.14,2.14,0,0,0-.4-1.2,1.45,1.45,0,0,0-2,0,1.59,1.59,0,0,0-.4,1.2Z" transform="translate(0 -0.7)"></path><path class="cls-4" d="M166,16.6h3.9V33.4a19.23,19.23,0,0,1-1,7,9.08,9.08,0,0,1-3.6,4.2,12.45,12.45,0,0,1-6.8,1.6,14.48,14.48,0,0,1-6.7-1.4,7.81,7.81,0,0,1-3.7-4.1,20.38,20.38,0,0,1-1.1-7.3V16.6h3.9V33.4a15.85,15.85,0,0,0,.7,5.6,6,6,0,0,0,2.4,2.8,8.68,8.68,0,0,0,4.2,1c2.8,0,4.9-.6,6.1-1.9s1.8-3.8,1.8-7.4V16.6Z" transform="translate(0 -0.7)"></path><path class="cls-4" d="M174.9,36.3l3.6-.3a8.48,8.48,0,0,0,1.2,3.6,6.91,6.91,0,0,0,2.9,2.3,10.63,10.63,0,0,0,4.5.9,9.37,9.37,0,0,0,3.9-.7,4.79,4.79,0,0,0,2.5-1.8,4.63,4.63,0,0,0,.8-2.5,4.07,4.07,0,0,0-.8-2.4,5.14,5.14,0,0,0-2.6-1.7,44,44,0,0,0-5.2-1.4,21.33,21.33,0,0,1-5.6-1.8,7.52,7.52,0,0,1-3.1-2.7,6.53,6.53,0,0,1-1-3.6,6.89,6.89,0,0,1,1.3-4.1,7.8,7.8,0,0,1,3.7-2.9,13.17,13.17,0,0,1,5.3-1,14.17,14.17,0,0,1,5.7,1,7.84,7.84,0,0,1,3.8,3.1,8.3,8.3,0,0,1,1.4,4.6l-3.7.3a6.44,6.44,0,0,0-2-4.2,8,8,0,0,0-5.1-1.4c-2.3,0-4,.4-5.1,1.3a3.84,3.84,0,0,0-1.6,3.1,3.63,3.63,0,0,0,1.1,2.6c.7.7,2.7,1.4,5.8,2.1a33.59,33.59,0,0,1,6.5,1.9,9.77,9.77,0,0,1,3.8,3,7.3,7.3,0,0,1,1.2,4.1,7.8,7.8,0,0,1-1.3,4.4,9.21,9.21,0,0,1-3.8,3.2,12.74,12.74,0,0,1-5.6,1.1,16.22,16.22,0,0,1-6.6-1.2,9.05,9.05,0,0,1-4.2-3.5A10.43,10.43,0,0,1,174.9,36.3Z" transform="translate(0 -0.7)"></path><path class="cls-4" d="M0,45.7V16.6H3.9v12H19v-12h3.9V45.7H19V32H3.9V45.7Z" transform="translate(0 -0.7)"></path><path class="cls-4" d="M43.3,38.9l3.7.5a9.28,9.28,0,0,1-3.2,5,9.72,9.72,0,0,1-6,1.8,9.56,9.56,0,0,1-7.3-2.9c-1.8-1.9-2.7-4.6-2.7-8,0-3.6.9-6.3,2.7-8.3a9.07,9.07,0,0,1,7.1-2.9A9.13,9.13,0,0,1,44.5,27q2.7,2.85,2.7,8.1v1H31.3a7.76,7.76,0,0,0,2,5.3,6,6,0,0,0,4.4,1.8,5.68,5.68,0,0,0,3.4-1A7.63,7.63,0,0,0,43.3,38.9ZM31.5,33.1H43.3a7,7,0,0,0-1.4-4A5.36,5.36,0,0,0,37.5,27a5.66,5.66,0,0,0-4.1,1.7A7.13,7.13,0,0,0,31.5,33.1Z" transform="translate(0 -0.7)"></path><path class="cls-4" d="M65.3,43.1a14.85,14.85,0,0,1-3.8,2.4,10,10,0,0,1-3.9.7,7.66,7.66,0,0,1-5.3-1.7,5.75,5.75,0,0,1-1.9-4.3,5.3,5.3,0,0,1,.7-2.8,7.41,7.41,0,0,1,1.8-2.1,10.34,10.34,0,0,1,2.6-1.2,16.53,16.53,0,0,1,3.2-.5,36.73,36.73,0,0,0,6.4-1.2v-.9a3.85,3.85,0,0,0-1-3.1A6.08,6.08,0,0,0,60,27.2a6.1,6.1,0,0,0-3.7.9,5.44,5.44,0,0,0-1.8,3.1L51,30.7a7.48,7.48,0,0,1,1.6-3.6A6.9,6.9,0,0,1,55.8,25a14.26,14.26,0,0,1,4.8-.7,13.33,13.33,0,0,1,4.4.6,6,6,0,0,1,2.5,1.6,5.91,5.91,0,0,1,1.1,2.4,21.61,21.61,0,0,1,.2,3.3V37c0,3.3.1,5.4.2,6.3a10.64,10.64,0,0,0,.9,2.5H66.2A5.12,5.12,0,0,1,65.3,43.1Zm-.3-8a28.86,28.86,0,0,1-5.8,1.4,16.29,16.29,0,0,0-3.1.7,3.33,3.33,0,0,0-1.4,1.2,3.37,3.37,0,0,0-.5,1.7,3.19,3.19,0,0,0,1.1,2.4,4.89,4.89,0,0,0,3.2,1,7.51,7.51,0,0,0,3.7-.9,5.28,5.28,0,0,0,2.4-2.5,8.36,8.36,0,0,0,.6-3.6V35.1Z" transform="translate(0 -0.7)"></path><path class="cls-4" d="M74.1,45.7V16.6h3.6V45.7Z" transform="translate(0 -0.7)"></path><path class="cls-4" d="M91,42.5l.5,3.2a13.9,13.9,0,0,1-2.7.3,6.12,6.12,0,0,1-3-.6,3.81,3.81,0,0,1-1.5-1.6,13,13,0,0,1-.4-4.2V27.4H81.2V24.6h2.6V19.4l3.6-2.1v7.4H91v2.8H87.4V39.8a7.47,7.47,0,0,0,.2,2,1.34,1.34,0,0,0,.6.7,2.13,2.13,0,0,0,1.2.3A5.69,5.69,0,0,1,91,42.5Z" transform="translate(0 -0.7)"></path><path class="cls-4" d="M94.5,45.7V16.6h3.6V27a8.17,8.17,0,0,1,6.3-2.9,8.85,8.85,0,0,1,4.1.9,5.25,5.25,0,0,1,2.5,2.6,11.92,11.92,0,0,1,.7,4.7V45.7h-3.6V32.3a5.36,5.36,0,0,0-1.2-3.9,4.46,4.46,0,0,0-3.3-1.2,6.11,6.11,0,0,0-3,.8,5.26,5.26,0,0,0-2,2.2,10,10,0,0,0-.6,3.9V45.7Z" transform="translate(0 -0.7)"></path><path class="cls-4" d="M117,53.8l-.4-3.4a8.79,8.79,0,0,0,2,.3,3.58,3.58,0,0,0,1.9-.4,3.18,3.18,0,0,0,1.2-1.1,18.93,18.93,0,0,0,1.1-2.7,4.65,4.65,0,0,0,.3-.9l-8-21.2H119l4.4,12.2a39.74,39.74,0,0,1,1.5,4.9,44.19,44.19,0,0,1,1.5-4.8l4.5-12.3h3.6l-8,21.5a51,51,0,0,1-2,4.8,7.22,7.22,0,0,1-2.2,2.6,5.47,5.47,0,0,1-2.9.8A4,4,0,0,1,117,53.8Z" transform="translate(0 -0.7)"></path></svg> 